<svg xmlns="http://www.w3.org/2000/svg" viewBox="0 0 40 40" width="40" height="40">
  <defs>
    <filter id="softShadow" x="-20%" y="-20%" width="140%" height="140%">
      <feDropShadow dx="1" dy="2" stdDeviation="1.1" flood-color="#5a3a24" flood-opacity="0.32"/>
    </filter>
    <linearGradient id="arrowFill" x1="9" y1="4" x2="27" y2="34" gradientUnits="userSpaceOnUse">
      <stop offset="0" stop-color="#ffffff"/>
      <stop offset="0.62" stop-color="#fffdf7"/>
      <stop offset="1" stop-color="#f0e7dc"/>
    </linearGradient>
    <linearGradient id="rim" x1="7" y1="3" x2="27" y2="35" gradientUnits="userSpaceOnUse">
      <stop offset="0" stop-color="#6c4b30"/>
      <stop offset="1" stop-color="#3a2618"/>
    </linearGradient>
  </defs>

  <path
    d="M5.4 3.9 7 32.5c.1 1.8 2.3 2.5 3.5 1.1l5.8-7 4.2 8.8c.5 1 1.7 1.4 2.7.9l3-1.4c1-.5 1.4-1.7.9-2.7l-4.3-8.9 8.5-.3c1.8-.1 2.6-2.3 1.2-3.5L8.8 2.2C7.4 1.1 5.3 2.1 5.4 3.9Z"
    fill="none"
    stroke="rgba(0,0,0,0.18)"
    stroke-width="5.2"
    stroke-linejoin="round"
    stroke-linecap="round"
    filter="url(#softShadow)"/>
  <path
    d="M5.4 3.9 7 32.5c.1 1.8 2.3 2.5 3.5 1.1l5.8-7 4.2 8.8c.5 1 1.7 1.4 2.7.9l3-1.4c1-.5 1.4-1.7.9-2.7l-4.3-8.9 8.5-.3c1.8-.1 2.6-2.3 1.2-3.5L8.8 2.2C7.4 1.1 5.3 2.1 5.4 3.9Z"
    fill="url(#arrowFill)"
    stroke="url(#rim)"
    stroke-width="2.8"
    stroke-linejoin="round"
    stroke-linecap="round"/>
  <path
    d="M8.6 6.2 9.8 27.6l5.3-6.4 4.1 8.5 3.2-1.5-4.1-8.6 8.1-.3Z"
    fill="none"
    stroke="#ffffff"
    stroke-width="1.15"
    stroke-linejoin="round"
    stroke-linecap="round"
    opacity="0.82"/>

  <circle cx="19.1" cy="17.1" r="1.35" fill="#ff93b3" opacity="0.78"/>
  <circle cx="22.9" cy="17.5" r="1.1" fill="#ff93b3" opacity="0.72"/>

  <path d="M31.8 5.1 32.8 7.4 35.2 8.3 32.8 9.2 31.8 11.5 30.8 9.2 28.5 8.3 30.8 7.4Z" fill="#ffd86b" stroke="#7a5630" stroke-width="0.7" stroke-linejoin="round"/>
  <circle cx="28.8" cy="12.9" r="1" fill="#9bd9ff" stroke="#5b704f" stroke-width="0.55"/>
</svg>
